<?xml version="1.0" encoding="utf-8"?>
<!-- Generator: Adobe Illustrator 19.0.0, SVG Export Plug-In . SVG Version: 6.00 Build 0)  -->
<svg version="1.1" id="Layer_1" xmlns="http://www.w3.org/2000/svg" xmlns:xlink="http://www.w3.org/1999/xlink" x="0px" y="0px"
	 viewBox="0 0 841.9 595.3" style="enable-background:new 0 0 841.9 595.3;" xml:space="preserve">
<style type="text/css">
	.st0{fill:url(#XMLID_2_);}
	.st1{fill:#5E5E5E;}
	.st2{fill:#CE2628;}
	.st3{fill:url(#XMLID_3_);}
</style>
<g id="Layer_1_1_">
	<g id="XMLID_11_">
		<g id="XMLID_101_">
			
				<linearGradient id="XMLID_2_" gradientUnits="userSpaceOnUse" x1="281.8" y1="434.86" x2="281.8" y2="247.4601" gradientTransform="matrix(1 0 0 -1 0 595.2401)">
				<stop  offset="0" style="stop-color:#E87630"/>
				<stop  offset="1" style="stop-color:#E6572C"/>
			</linearGradient>
			<path id="XMLID_102_" class="st0" d="M174.4,173.6c-4.1-4.1-8.9-7.4-14.3-9.7s-11.3-3.5-17.4-3.5c-6.2,0-12,1.2-17.4,3.5
				s-10.2,5.6-14.3,9.7c-4.1,4.1-7.4,8.9-9.7,14.3c-2.3,5.4-3.5,11.3-3.5,17.4v97.4c0,3.2-1.1,5.9-3.2,8c-2.2,2.2-4.8,3.2-8,3.2H81
				v33.8h5.6c6.2,0,12-1.2,17.4-3.5s10.2-5.6,14.3-9.7c4.1-4.1,7.4-8.9,9.7-14.3c2.3-5.4,3.5-11.3,3.5-17.4v-12.7h56.3v-84.8
				c0-6.2-1.2-12-3.5-17.4S178.5,177.7,174.4,173.6z M153.8,256.4h-22.5v-51c0-3.2,1.1-5.9,3.2-8c2.2-2.2,4.8-3.2,8-3.2
				s5.9,1.1,8,3.2c2.2,2.2,3.2,4.8,3.2,8L153.8,256.4L153.8,256.4z M215.8,302.8c0,3.2-1.1,5.9-3.2,8c-2.2,2.2-4.8,3.2-8,3.2H199
				v33.8h5.6c6.2,0,12-1.2,17.4-3.5s10.2-5.6,14.3-9.7c4.1-4.1,7.4-8.9,9.7-14.3s3.5-11.3,3.5-17.4V195.6h-33.8L215.8,302.8
				L215.8,302.8z M308,178h-33.8v111.9H308V178z M478.9,221.9c-2.3-5.4-5.6-10.2-9.7-14.3c-4.1-4.1-8.9-7.4-14.3-9.7
				c-5.4-2.3-11.3-3.5-17.4-3.5c-6.2,0-12,1.2-17.4,3.5s-10.2,5.6-14.3,9.7c-4.1,4.1-7.4,8.9-9.7,14.3c-2.3,5.4-3.5,11.3-3.5,17.4
				V290h56.3v23.8h-90V160.4H325v153.5h-59.1v33.8h216.7V239.4C482.4,233.1,481.3,227.3,478.9,221.9z M448.6,256.2h-22.5v-16.9
				c0-3.2,1.1-5.9,3.2-8c2.2-2.2,4.8-3.2,8-3.2s5.9,1.1,8,3.2c2.2,2.2,3.2,4.8,3.2,8L448.6,256.2L448.6,256.2z M437.4,189.3
				c3.9,0,7.3-1.4,10-4.1c2.7-2.7,4.1-6,4.1-10s-1.4-7.3-4.1-10c-2.7-2.7-6-4.1-10-4.1c-3.9,0-7.3,1.4-10,4.1c-2.7,2.7-4.1,6-4.1,10
				s1.4,7.3,4.1,10C430.1,187.9,433.5,189.3,437.4,189.3z"/>
		</g>
	</g>
	<g id="XMLID_15_">
		<path id="XMLID_18_" class="st1" d="M239.9,426.4c-1,0-1.9,0.4-2.5,1.1c-0.7,0.7-1,1.6-1,2.6c0,1.1,0.3,2,1,2.7s1.5,1.1,2.5,1.1
			s1.9-0.4,2.5-1.1c0.7-0.7,1-1.6,1-2.7c0-1-0.3-1.9-1-2.6C241.8,426.8,240.9,426.4,239.9,426.4z"/>
		<path id="XMLID_28_" class="st1" d="M249,426.4c-1,0-1.9,0.4-2.5,1.1c-0.7,0.7-1,1.6-1,2.6c0,1.1,0.3,2,1,2.7s1.5,1.1,2.5,1.1
			s1.9-0.4,2.5-1.1c0.7-0.7,1-1.6,1-2.7c0-1-0.3-1.9-1-2.6S250,426.4,249,426.4z"/>
		<path id="XMLID_30_" class="st1" d="M426.3,426.4c-1,0-1.8,0.4-2.5,1.1s-1,1.6-1,2.6c0,1.1,0.3,2,1,2.7s1.5,1.1,2.5,1.1
			s1.8-0.4,2.5-1.1s1-1.6,1-2.7c0-1-0.3-1.9-1-2.6S427.3,426.4,426.3,426.4z"/>
		<path id="XMLID_31_" class="st1" d="M423.9,414.5h-7.7h-0.4h-9.1h-0.2h-9.3h-0.2h-9.3h-0.2h-9.3h-0.2h-9.3h-0.2h-9.3h-0.1h-9.3
			h-0.2h-9.3h-0.2h-9.3h-0.2h-9.3h-0.2h-9.3h-0.2h-9.3h-0.2h-9.3h-0.2h-9.3h-0.2h-9.3h-0.2h-9.3h-0.2h-9.2h-0.3h-1.8
			c-2,0-3.3-0.6-4-1.7s-1.1-2.5-1.1-4.3v-12.3h-6.6v14.9c0,1-0.1,1.9-0.4,2.5c-0.3,0.6-0.9,0.9-1.7,0.9h-5.3h-0.3h-9.3h-0.2h-9.3
			h-0.2h-9.3h-0.2h-9.3h-0.2h-9.3h-0.2h-9.3h-0.2h-9.3h-0.2h-9.3h-0.2h-9.3h-0.2h-9.3h-0.2h-9.3l0,0h-9.3h-0.2h-9.3h-0.2h-9.3h-0.2
			h-9.3h-0.2h-3.7v-38.8h-6.7V422h10.4h0.2h9.3h0.3h9.2h0.3h9.2h0.3h9.2h0.3h9.2h0.3h9.2h0.3h9.2h0.3h9.2h0.3h9.2h0.3h9.2h0.3h9.2
			h0.3h9.2h0.3h9.2h0.3h9.2h0.3h9.1h0.4h5.6c1.6,0,3.1-0.4,4.2-1.2c1.2-0.8,2.1-1.9,2.8-3.1c0.5,1.1,1.3,2.1,2.4,3
			c1,0.9,2.4,1.4,4.1,1.4h1.9h0.3h9.2h0.3h9.2h0.3h9.2h0.3h9.2h0.3h9.2h0.3h9.2h0.3h9.2h0.3h9.2h0.3h9.2h0.3h9.2h0.3h9.2h0.3h9.2
			h0.3h9.2h0.3h9.2h0.3h9.2h0.3h9.2h0.3h9.1h0.4h14.3v-25.7h-6.7v18.1H423.9z"/>
		<rect id="XMLID_33_" x="439.3" y="375.7" class="st1" width="6.6" height="46.3"/>
		<path id="XMLID_35_" class="st1" d="M459,420.4c0,2.3-0.3,4.1-0.9,5.3c-0.6,1.2-1.7,1.8-3.5,1.8c-0.4,0-0.9,0-1.4-0.1
			s-1-0.1-1.5-0.2l-1.6-0.4l-0.8,7.4c0.3,0.1,0.5,0.2,0.8,0.2s0.5,0.1,0.8,0.1c0.5,0.1,1,0.2,1.6,0.2c0.6,0.1,1.3,0.1,2,0.1
			c1.8,0,3.4-0.4,4.7-1.1s2.5-1.7,3.5-2.9c0.9-1.3,1.6-2.7,2.1-4.4c0.5-1.7,0.7-3.5,0.7-5.4v-24.7h-6.7v24.1H459z"/>
		<path id="XMLID_36_" class="st1" d="M480.6,366.9c-1.1,0-2-0.3-2.5-0.8c-0.5-0.6-0.8-1.2-0.8-1.8c0-0.7,0.2-1.3,0.6-1.6
			c0.4-0.4,0.9-0.5,1.5-0.5c0.7,0,1.4,0.1,2.1,0.3l0.5-3.2c-0.4-0.1-0.9-0.2-1.4-0.3c-0.5-0.1-1-0.1-1.5-0.1c-1.8,0-3.1,0.5-3.9,1.4
			c-0.9,0.9-1.3,2-1.3,3.3c0,0.7,0.1,1.4,0.4,1.9c0.3,0.6,0.6,1.1,0.9,1.6h-2.6v3.4h9.9v-3.4h-1.9V366.9z"/>
		<rect id="XMLID_38_" x="474.5" y="375.7" class="st1" width="6.6" height="46.3"/>
	</g>
	<g id="XMLID_10_">
		<path id="XMLID_12_" class="st2" d="M611,244.1V435l129.7-69.5c18-8.7,20.6-14,20.6-21.6l0-170.4c0-6.8-5.3-9.4-11.9-5.8
			L611,244.1z"/>
		
			<linearGradient id="XMLID_3_" gradientUnits="userSpaceOnUse" x1="659.15" y1="434.0601" x2="659.15" y2="229.5601" gradientTransform="matrix(-1 0 0 -1 1288.7999 595.2401)">
			<stop  offset="0" style="stop-color:#E87630"/>
			<stop  offset="1" style="stop-color:#E6572C"/>
		</linearGradient>
		<path id="XMLID_19_" class="st3" d="M498.1,161.2v186.7h230.3c32.4,0.1,11.8,17.8,11.8,17.8c21-10,20.7-16.1,21.1-21.9l0-170.1
			c0-6.9-6.3-12.5-14.1-12.5H498.1z"/>
	</g>
</g>
<g id="Layer_2">
</g>
<g id="Layer_3">
</g>
<g id="Layer_4">
</g>
</svg>
