<?xml version="1.0" encoding="utf-8"?>
<!-- Generator: Adobe Illustrator 19.0.0, SVG Export Plug-In . SVG Version: 6.00 Build 0)  -->
<svg version="1.1" id="Layer_1" xmlns="http://www.w3.org/2000/svg" xmlns:xlink="http://www.w3.org/1999/xlink" x="0px" y="0px"
	 viewBox="0 0 841.9 595.3" style="enable-background:new 0 0 841.9 595.3;" xml:space="preserve">
<style type="text/css">
	.st0{fill:url(#XMLID_2_);}
	.st1{fill:#5E5E5E;}
	.st2{fill:#CE2628;}
	.st3{fill:url(#XMLID_3_);}
</style>
<g id="Layer_1_1_">
	<g id="XMLID_11_">
		<g id="XMLID_101_">
			
				<linearGradient id="XMLID_2_" gradientUnits="userSpaceOnUse" x1="281.8" y1="434.91" x2="281.8" y2="247.51" gradientTransform="matrix(1 0 0 -1 0 595.2401)">
				<stop  offset="0" style="stop-color:#E87630"/>
				<stop  offset="1" style="stop-color:#E6572C"/>
			</linearGradient>
			<path id="XMLID_102_" class="st0" d="M174.4,173.5c-4.1-4.1-8.9-7.4-14.3-9.7s-11.3-3.5-17.4-3.5c-6.2,0-12,1.2-17.4,3.5
				s-10.2,5.6-14.3,9.7c-4.1,4.1-7.4,8.9-9.7,14.3c-2.3,5.4-3.5,11.3-3.5,17.4v97.4c0,3.2-1.1,5.9-3.2,8c-2.2,2.2-4.8,3.2-8,3.2H81
				v33.8h5.6c6.2,0,12-1.2,17.4-3.5s10.2-5.6,14.3-9.7c4.1-4.1,7.4-8.9,9.7-14.3c2.3-5.4,3.5-11.3,3.5-17.4V290h56.3v-84.8
				c0-6.2-1.2-12-3.5-17.4S178.5,177.6,174.4,173.5z M153.8,256.3h-22.5v-51c0-3.2,1.1-5.9,3.2-8c2.2-2.2,4.8-3.2,8-3.2
				s5.9,1.1,8,3.2c2.2,2.2,3.2,4.8,3.2,8L153.8,256.3L153.8,256.3z M215.8,302.7c0,3.2-1.1,5.9-3.2,8c-2.2,2.2-4.8,3.2-8,3.2H199
				v33.8h5.6c6.2,0,12-1.2,17.4-3.5s10.2-5.6,14.3-9.7c4.1-4.1,7.4-8.9,9.7-14.3s3.5-11.3,3.5-17.4V195.5h-33.8L215.8,302.7
				L215.8,302.7z M308,177.9h-33.8v111.9H308V177.9z M478.9,221.8c-2.3-5.4-5.6-10.2-9.7-14.3c-4.1-4.1-8.9-7.4-14.3-9.7
				c-5.4-2.3-11.3-3.5-17.4-3.5c-6.2,0-12,1.2-17.4,3.5s-10.2,5.6-14.3,9.7c-4.1,4.1-7.4,8.9-9.7,14.3c-2.3,5.4-3.5,11.3-3.5,17.4
				v50.7h56.3v23.8h-90V160.3H325v153.5h-59.1v33.8h216.7V239.3C482.4,233,481.3,227.2,478.9,221.8z M448.6,256.1h-22.5v-16.9
				c0-3.2,1.1-5.9,3.2-8c2.2-2.2,4.8-3.2,8-3.2s5.9,1.1,8,3.2c2.2,2.2,3.2,4.8,3.2,8L448.6,256.1L448.6,256.1z M437.4,189.2
				c3.9,0,7.3-1.4,10-4.1c2.7-2.7,4.1-6,4.1-10s-1.4-7.3-4.1-10c-2.7-2.7-6-4.1-10-4.1c-3.9,0-7.3,1.4-10,4.1c-2.7,2.7-4.1,6-4.1,10
				s1.4,7.3,4.1,10C430.1,187.8,433.5,189.2,437.4,189.2z"/>
		</g>
	</g>
	<g>
		<path class="st1" d="M349.5,426.3c-1,0-1.9,0.4-2.5,1.1c-0.7,0.7-1,1.6-1,2.6c0,1.1,0.3,2,1,2.7s1.5,1.1,2.5,1.1s1.9-0.4,2.5-1.1
			c0.7-0.7,1-1.6,1-2.7c0-1-0.3-1.9-1-2.6C351.4,426.7,350.5,426.3,349.5,426.3z"/>
		<path class="st1" d="M358.6,426.3c-1,0-1.9,0.4-2.5,1.1c-0.7,0.7-1,1.6-1,2.6c0,1.1,0.3,2,1,2.7s1.5,1.1,2.5,1.1s1.9-0.4,2.5-1.1
			c0.7-0.7,1-1.6,1-2.7c0-1-0.3-1.9-1-2.6S359.6,426.3,358.6,426.3z"/>
		<path class="st1" d="M426.3,426.3c-1,0-1.8,0.4-2.5,1.1s-1,1.6-1,2.6c0,1.1,0.3,2,1,2.7s1.5,1.1,2.5,1.1s1.8-0.4,2.5-1.1
			s1-1.6,1-2.7c0-1-0.3-1.9-1-2.6S427.3,426.3,426.3,426.3z"/>
		<polyline class="st1" points="368.8,422 369.1,422 378.3,422 378.6,422 387.8,422 388.1,422 397.3,422 397.6,422 406.8,422 
			407.1,422 416.2,422 416.6,422 430.9,422 430.9,396.3 424.2,396.3 424.2,414.4 423.8,414.4 416.1,414.4 415.7,414.4 406.6,414.4 
			406.4,414.4 397.1,414.4 396.9,414.4 387.6,414.4 387.4,414.4 378.1,414.4 377.9,414.4 368.6,414.4 368.4,414.4 		"/>
		<path class="st1" d="M373.9,414.4h-0.2h-9.2h-0.3h-1.8c-2,0-3.3-0.6-4-1.7c-0.7-1.1-1.1-2.5-1.1-4.3v-12.3h-6.6V411
			c0,1-0.1,1.9-0.4,2.5c-0.3,0.6-0.9,0.9-1.7,0.9h-5.3H343l0.1,7.5h0.4h5.6c1.6,0,3.1-0.4,4.2-1.2c1.2-0.8,2.1-1.9,2.8-3.1
			c0.5,1.1,1.3,2.1,2.4,3c1,0.9,2.4,1.4,4.1,1.4h1.9h0.3h9.2h0.3"/>
		<polyline class="st1" points="344.5,414.4 344.3,414.4 340.6,414.4 340.6,375.6 333.9,375.6 333.9,421.9 344.3,421.9 344.5,421.9 
					"/>
		<rect x="439.3" y="375.6" class="st1" width="6.6" height="46.3"/>
		<path class="st1" d="M458.7,420.3h0.2c0,2.3-0.3,4.1-0.9,5.3c-0.6,1.2-1.7,1.8-3.5,1.8c-0.4,0-0.9,0-1.4-0.1
			c-0.5-0.1-1-0.1-1.5-0.2l-1.6-0.4l-0.8,7.4c0.3,0.1,0.5,0.2,0.8,0.2s0.5,0.1,0.8,0.1c0.5,0.1,1,0.2,1.6,0.2c0.6,0.1,1.3,0.1,2,0.1
			c1.8,0,3.4-0.4,4.7-1.1s2.5-1.7,3.5-2.9c0.9-1.3,1.6-2.7,2.1-4.4s0.7-3.5,0.7-5.4v-24.7h-6.7V420.3z"/>
		<path class="st1" d="M480.5,367v-0.2c-1.1,0-2-0.3-2.5-0.8c-0.5-0.6-0.8-1.2-0.8-1.8c0-0.7,0.2-1.3,0.6-1.6
			c0.4-0.4,0.9-0.5,1.5-0.5c0.7,0,1.4,0.1,2.1,0.3l0.5-3.2c-0.4-0.1-0.9-0.2-1.4-0.3c-0.5-0.1-1-0.1-1.5-0.1c-1.8,0-3.1,0.5-3.9,1.4
			c-0.9,0.9-1.3,2-1.3,3.3c0,0.7,0.1,1.4,0.4,1.9c0.3,0.6,0.6,1.1,0.9,1.6h-2.6v3.4h9.9V367H480.5z"/>
		<rect x="474.5" y="375.6" class="st1" width="6.6" height="46.3"/>
	</g>
	<g id="XMLID_10_">
		<path id="XMLID_12_" class="st2" d="M510,167.6c-6.6-3.6-11.9-1-11.9,5.8v170.4c0,7.6,2.6,12.9,20.6,21.6l129.7,69.5V244
			L510,167.6z"/>
		
			<linearGradient id="XMLID_3_" gradientUnits="userSpaceOnUse" x1="659.15" y1="434.11" x2="659.15" y2="229.61" gradientTransform="matrix(1 0 0 -1 -29.4999 595.2401)">
			<stop  offset="0" style="stop-color:#E87630"/>
			<stop  offset="1" style="stop-color:#E6572C"/>
		</linearGradient>
		<path id="XMLID_19_" class="st3" d="M512.2,161.1c-7.8,0-14.1,5.6-14.1,12.5v170.1c0.4,5.8,0.1,11.9,21.1,21.9
			c0,0-20.6-17.7,11.8-17.8h230.3V161.1H512.2z"/>
	</g>
</g>
<g id="Layer_2">
</g>
<g id="Layer_3">
</g>
<g id="Layer_4">
</g>
</svg>
