<?xml version="1.0" encoding="utf-8"?>
<!-- Generator: Adobe Illustrator 19.0.0, SVG Export Plug-In . SVG Version: 6.00 Build 0)  -->
<svg version="1.1" xmlns="http://www.w3.org/2000/svg" xmlns:xlink="http://www.w3.org/1999/xlink" x="0px" y="0px"
	 viewBox="0 0 968.9 595.3" style="enable-background:new 0 0 968.9 595.3;" xml:space="preserve">
<style type="text/css">
	.st0{display:none;}
	.st1{display:inline;}
	.st2{fill:url(#XMLID_489_);}
	.st3{fill:#3C5675;}
	.st4{display:inline;fill:#5E5F5F;}
	.st5{fill:#CE2629;}
	.st6{fill:url(#XMLID_490_);}
	.st7{fill:url(#XMLID_507_);}
	.st8{fill:url(#XMLID_508_);}
	.st9{fill:url(#XMLID_509_);}
	.st10{fill:url(#XMLID_510_);}
	.st11{fill:url(#XMLID_511_);}
</style>
<g id="Layer_1">
	<g id="Layer_1_1_" class="st0">
		<g id="XMLID_391_" class="st1">
			<g id="XMLID_392_">
				
					<linearGradient id="XMLID_489_" gradientUnits="userSpaceOnUse" x1="408.8" y1="436.32" x2="408.8" y2="248.92" gradientTransform="matrix(1 0 0 -1 0 596.72)">
					<stop  offset="0" style="stop-color:#E87631"/>
					<stop  offset="1" style="stop-color:#E5582B"/>
				</linearGradient>
				<path id="XMLID_393_" class="st2" d="M301.4,173.6c-4.1-4.1-8.9-7.4-14.3-9.7s-11.3-3.5-17.4-3.5c-6.2,0-12,1.2-17.4,3.5
					s-10.2,5.6-14.3,9.7c-4.1,4.1-7.4,8.9-9.7,14.3c-2.3,5.4-3.5,11.3-3.5,17.4v97.4c0,3.2-1.1,5.9-3.2,8c-2.2,2.2-4.8,3.2-8,3.2
					H208v33.8h5.6c6.2,0,12-1.2,17.4-3.5s10.2-5.6,14.3-9.7c4.1-4.1,7.4-8.9,9.7-14.3c2.3-5.4,3.5-11.3,3.5-17.4v-12.7h56.3v-84.8
					c0-6.2-1.2-12-3.5-17.4S305.5,177.7,301.4,173.6z M280.8,256.4h-22.5v-51c0-3.2,1.1-5.9,3.2-8c2.2-2.2,4.8-3.2,8-3.2
					s5.9,1.1,8,3.2c2.2,2.2,3.2,4.8,3.2,8L280.8,256.4L280.8,256.4z M342.8,302.8c0,3.2-1.1,5.9-3.2,8c-2.2,2.2-4.8,3.2-8,3.2H326
					v33.8h5.6c6.2,0,12-1.2,17.4-3.5s10.2-5.6,14.3-9.7c4.1-4.1,7.4-8.9,9.7-14.3s3.5-11.3,3.5-17.4V195.6h-33.8L342.8,302.8
					L342.8,302.8z M435,178h-33.8v111.9H435V178z M605.8,221.9c-2.3-5.4-5.6-10.2-9.7-14.3s-8.9-7.4-14.3-9.7s-11.3-3.5-17.4-3.5
					c-6.2,0-12,1.2-17.4,3.5s-10.2,5.6-14.3,9.7c-4.1,4.1-7.4,8.9-9.7,14.3c-2.3,5.4-3.5,11.3-3.5,17.4V290h56.3v23.8h-90V160.4H452
					v153.5h-59.1v33.8h216.7V239.4C609.3,233.1,608.3,227.3,605.8,221.9z M575.7,256.2h-22.5v-16.9c0-3.2,1.1-5.9,3.2-8
					c2.2-2.2,4.8-3.2,8-3.2c3.2,0,5.9,1.1,8,3.2c2.2,2.2,3.2,4.8,3.2,8L575.7,256.2L575.7,256.2z M564.3,189.3c3.9,0,7.3-1.4,10-4.1
					c2.7-2.7,4.1-6,4.1-10s-1.4-7.3-4.1-10s-6-4.1-10-4.1c-3.9,0-7.3,1.4-10,4.1c-2.7,2.7-4.1,6-4.1,10s1.4,7.3,4.1,10
					C557.1,187.9,560.5,189.3,564.3,189.3z"/>
			</g>
		</g>
	</g>
	<g id="XMLID_394_" class="st0">
		<g id="XMLID_395_" class="st1">
			<path id="XMLID_396_" d="M301.4,173.6c-4.1-4.1-8.9-7.4-14.3-9.7s-11.3-3.5-17.4-3.5c-6.2,0-12,1.2-17.4,3.5s-10.2,5.6-14.3,9.7
				c-4.1,4.1-7.4,8.9-9.7,14.3c-2.3,5.4-3.5,11.3-3.5,17.4v97.4c0,3.2-1.1,5.9-3.2,8c-2.2,2.2-4.8,3.2-8,3.2H208v33.8h5.6
				c6.2,0,12-1.2,17.4-3.5s10.2-5.6,14.3-9.7c4.1-4.1,7.4-8.9,9.7-14.3c2.3-5.4,3.5-11.3,3.5-17.4v-12.7h56.3v-84.8
				c0-6.2-1.2-12-3.5-17.4S305.5,177.7,301.4,173.6z M280.8,256.4h-22.5v-51c0-3.2,1.1-5.9,3.2-8c2.2-2.2,4.8-3.2,8-3.2
				s5.9,1.1,8,3.2c2.2,2.2,3.2,4.8,3.2,8L280.8,256.4L280.8,256.4z M342.8,302.8c0,3.2-1.1,5.9-3.2,8c-2.2,2.2-4.8,3.2-8,3.2H326
				v33.8h5.6c6.2,0,12-1.2,17.4-3.5s10.2-5.6,14.3-9.7c4.1-4.1,7.4-8.9,9.7-14.3s3.5-11.3,3.5-17.4V195.6h-33.8L342.8,302.8
				L342.8,302.8z M435,178h-33.8v111.9H435V178z M605.8,221.9c-2.3-5.4-5.6-10.2-9.7-14.3s-8.9-7.4-14.3-9.7s-11.3-3.5-17.4-3.5
				c-6.2,0-12,1.2-17.4,3.5s-10.2,5.6-14.3,9.7c-4.1,4.1-7.4,8.9-9.7,14.3c-2.3,5.4-3.5,11.3-3.5,17.4V290h56.3v23.8h-90V160.4H452
				v153.5h-59.1v33.8h216.7V239.4C609.3,233.1,608.3,227.3,605.8,221.9z M575.7,256.2h-22.5v-16.9c0-3.2,1.1-5.9,3.2-8
				c2.2-2.2,4.8-3.2,8-3.2c3.2,0,5.9,1.1,8,3.2c2.2,2.2,3.2,4.8,3.2,8L575.7,256.2L575.7,256.2z M564.3,189.3c3.9,0,7.3-1.4,10-4.1
				c2.7-2.7,4.1-6,4.1-10s-1.4-7.3-4.1-10s-6-4.1-10-4.1c-3.9,0-7.3,1.4-10,4.1c-2.7,2.7-4.1,6-4.1,10s1.4,7.3,4.1,10
				C557.1,187.9,560.5,189.3,564.3,189.3z"/>
		</g>
	</g>
	<g id="XMLID_404_">
		<path id="XMLID_405_" class="st3" d="M774.5,426.4c-1,0-1.9,0.4-2.5,1.1c-0.7,0.7-1,1.6-1,2.6c0,1.1,0.3,2,1,2.7s1.5,1.1,2.5,1.1
			s1.9-0.4,2.5-1.1c0.7-0.7,1-1.6,1-2.7c0-1-0.3-1.9-1-2.6C776.4,426.8,775.5,426.4,774.5,426.4z"/>
		<path id="XMLID_406_" class="st3" d="M783.6,426.4c-1,0-1.9,0.4-2.5,1.1c-0.7,0.7-1,1.6-1,2.6c0,1.1,0.3,2,1,2.7s1.5,1.1,2.5,1.1
			s1.9-0.4,2.5-1.1c0.7-0.7,1-1.6,1-2.7c0-1-0.3-1.9-1-2.6S784.6,426.4,783.6,426.4z"/>
		<path id="XMLID_407_" class="st3" d="M817.9,426.4c-1,0-1.8,0.4-2.5,1.1s-1,1.6-1,2.6c0,1.1,0.3,2,1,2.7s1.5,1.1,2.5,1.1
			s1.8-0.4,2.5-1.1s1-1.6,1-2.7c0-1-0.3-1.9-1-2.6S818.9,426.4,817.9,426.4z"/>
		<path id="XMLID_408_" class="st3" d="M798.5,422.1h0.3h9.1h0.4h14.3v-25.7h-6.7v18.1h-0.4h-7.7h-0.4h-9.1"/>
		<path id="XMLID_409_" class="st3" d="M768.1,422h0.4h5.6c1.6,0,3.1-0.4,4.2-1.2c1.2-0.8,2.1-1.9,2.8-3.1c0.5,1.1,1.3,2.1,2.4,3
			c1,0.9,2.4,1.4,4.1,1.4h1.9h0.3h9.2l-0.1-7.6h-0.2h-9.2h-0.3h-1.8c-2,0-3.3-0.6-4-1.7c-0.7-1.1-1.1-2.5-1.1-4.3v-12.3h-6.6v14.9
			c0,1-0.1,1.9-0.4,2.5c-0.3,0.6-0.9,0.9-1.7,0.9h-5.3H768"/>
		<polyline id="XMLID_410_" class="st3" points="771,414.5 770.8,414.5 767.1,414.5 767.1,375.7 760.4,375.7 760.4,422 770.8,422 
			771,422 		"/>
		<rect id="XMLID_411_" x="830.9" y="375.7" class="st3" width="6.6" height="46.3"/>
		<path id="XMLID_412_" class="st3" d="M850.6,420.4c0,2.3-0.3,4.1-0.9,5.3c-0.6,1.2-1.7,1.8-3.5,1.8c-0.4,0-0.9,0-1.4-0.1
			s-1-0.1-1.5-0.2l-1.6-0.4l-0.8,7.4c0.3,0.1,0.5,0.2,0.8,0.2s0.5,0.1,0.8,0.1c0.5,0.1,1,0.2,1.6,0.2c0.6,0.1,1.3,0.1,2,0.1
			c1.8,0,3.4-0.4,4.7-1.1s2.5-1.7,3.5-2.9c0.9-1.3,1.6-2.7,2.1-4.4c0.5-1.7,0.7-3.5,0.7-5.4v-24.7h-6.7v24.1H850.6z"/>
		<path id="XMLID_413_" class="st3" d="M872.2,366.9c-1.1,0-2-0.3-2.5-0.8c-0.5-0.6-0.8-1.2-0.8-1.8c0-0.7,0.2-1.3,0.6-1.6
			c0.4-0.4,0.9-0.5,1.5-0.5c0.7,0,1.4,0.1,2.1,0.3l0.5-3.2c-0.4-0.1-0.9-0.2-1.4-0.3c-0.5-0.1-1-0.1-1.5-0.1c-1.8,0-3.1,0.5-3.9,1.4
			c-0.9,0.9-1.3,2-1.3,3.3c0,0.7,0.1,1.4,0.4,1.9c0.3,0.6,0.6,1.1,0.9,1.6h-2.6v3.4h9.9v-3.4h-1.9V366.9z"/>
		<rect id="XMLID_414_" x="866.1" y="375.7" class="st3" width="6.6" height="46.3"/>
	</g>
	<g id="XMLID_445_" class="st0">
		<path id="XMLID_455_" class="st4" d="M509.9,450.4c-1,0-1.9,0.4-2.5,1.1c-0.7,0.7-1,1.6-1,2.6c0,1.1,0.3,2,1,2.7s1.5,1.1,2.5,1.1
			s1.9-0.4,2.5-1.1c0.7-0.7,1-1.6,1-2.7c0-1-0.3-1.9-1-2.6C511.8,450.8,510.9,450.4,509.9,450.4z"/>
		<path id="XMLID_454_" class="st4" d="M519,450.4c-1,0-1.9,0.4-2.5,1.1c-0.7,0.7-1,1.6-1,2.6c0,1.1,0.3,2,1,2.7s1.5,1.1,2.5,1.1
			s1.9-0.4,2.5-1.1c0.7-0.7,1-1.6,1-2.7c0-1-0.3-1.9-1-2.6S520,450.4,519,450.4z"/>
		<path id="XMLID_453_" class="st4" d="M553.3,450.4c-1,0-1.8,0.4-2.5,1.1c-0.7,0.7-1,1.6-1,2.6c0,1.1,0.3,2,1,2.7
			c0.7,0.7,1.5,1.1,2.5,1.1s1.8-0.4,2.5-1.1c0.7-0.7,1-1.6,1-2.7c0-1-0.3-1.9-1-2.6C555.1,450.8,554.3,450.4,553.3,450.4z"/>
		<path id="XMLID_452_" class="st4" d="M533.8,446.1h0.3h9.1h0.4h14.3v-25.7h-6.7v18.1h-0.4h-7.7h-0.4h-9.1"/>
		<path id="XMLID_451_" class="st4" d="M503.5,446h0.4h5.6c1.6,0,3.1-0.4,4.2-1.2c1.2-0.8,2.1-1.9,2.8-3.1c0.5,1.1,1.3,2.1,2.4,3
			c1,0.9,2.4,1.4,4.1,1.4h1.9h0.3h9.2l-0.1-7.6h-0.2h-9.2h-0.3h-1.8c-2,0-3.3-0.6-4-1.7c-0.7-1.1-1.1-2.5-1.1-4.3v-12.3h-6.6v14.9
			c0,1-0.1,1.9-0.4,2.5c-0.3,0.6-0.9,0.9-1.7,0.9h-5.3h-0.3"/>
		<polyline id="XMLID_450_" class="st4" points="506.4,438.5 506.1,438.5 502.4,438.5 502.4,399.7 495.7,399.7 495.7,446 506.1,446 
			506.4,446 		"/>
		<rect id="XMLID_449_" x="566.3" y="399.7" class="st4" width="6.6" height="46.3"/>
		<path id="XMLID_448_" class="st4" d="M586,444.4c0,2.3-0.3,4.1-0.9,5.3c-0.6,1.2-1.7,1.8-3.5,1.8c-0.4,0-0.9,0-1.4-0.1
			s-1-0.1-1.5-0.2l-1.6-0.4l-0.8,7.4c0.3,0.1,0.5,0.2,0.8,0.2c0.3,0,0.5,0.1,0.8,0.1c0.5,0.1,1,0.2,1.6,0.2c0.6,0.1,1.3,0.1,2,0.1
			c1.8,0,3.4-0.4,4.7-1.1c1.3-0.7,2.5-1.7,3.5-2.9c0.9-1.3,1.6-2.7,2.1-4.4c0.5-1.7,0.7-3.5,0.7-5.4v-24.7h-6.7v24.1H586z"/>
		<path id="XMLID_447_" class="st4" d="M607.6,390.9c-1.1,0-2-0.3-2.5-0.8c-0.5-0.6-0.8-1.2-0.8-1.8c0-0.7,0.2-1.3,0.6-1.6
			c0.4-0.4,0.9-0.5,1.5-0.5c0.7,0,1.4,0.1,2.1,0.3l0.5-3.2c-0.4-0.1-0.9-0.2-1.4-0.3c-0.5-0.1-1-0.1-1.5-0.1c-1.8,0-3.1,0.5-3.9,1.4
			c-0.9,0.9-1.3,2-1.3,3.3c0,0.7,0.1,1.4,0.4,1.9c0.3,0.6,0.6,1.1,0.9,1.6h-2.6v3.4h9.9v-3.4h-1.9V390.9z"/>
		<rect id="XMLID_446_" x="601.5" y="399.7" class="st4" width="6.6" height="46.3"/>
	</g>
	<g id="XMLID_415_">
		<path id="XMLID_416_" class="st5" d="M106.6,167.7c-6.6-3.6-11.9-1-11.9,5.8v170.4c0,7.6,2.6,12.9,20.6,21.6L245,435V244.1
			L106.6,167.7z"/>
		
			<linearGradient id="XMLID_490_" gradientUnits="userSpaceOnUse" x1="257.7533" y1="435.52" x2="257.7533" y2="231.02" gradientTransform="matrix(1 0 0 -1 -31.4999 596.72)">
			<stop  offset="0" style="stop-color:#E87631"/>
			<stop  offset="1" style="stop-color:#E5582B"/>
		</linearGradient>
		<path id="XMLID_417_" class="st6" d="M108.8,161.2c-7.8,0-14.1,5.6-14.1,12.5v170.1c0.4,5.8,0.1,11.9,21.1,21.9
			c0,0-20.6-17.7,11.8-17.8h230.3V161.2H108.8z"/>
	</g>
	<g id="XMLID_507_" class="st0">
		<path id="XMLID_508_" class="st1" d="M59.1,370.5h5.6c3.2,0,5.9-1.1,8-3.2c2.2-2.2,3.2-4.8,3.2-8v-95.7c0-6.2,1.2-12,3.5-17.5
			c2.3-5.4,5.6-10.2,9.7-14.4c4.1-4.1,8.9-7.4,14.4-9.7c5.4-2.3,11.3-3.5,17.5-3.5c6.2,0,12,1.2,17.5,3.5c5.4,2.3,10.2,5.6,14.4,9.7
			c4.1,4.1,7.4,8.9,9.7,14.4c2.3,5.4,3.5,11.3,3.5,17.5V348h-56.3v11.3c0,6.2-1.2,12-3.5,17.5c-2.3,5.4-5.6,10.2-9.7,14.4
			c-4.1,4.1-8.9,7.4-14.4,9.7c-5.4,2.3-11.3,3.5-17.5,3.5h-5.6V370.5z M132.3,314.2v-50.7c0-3.2-1.1-5.9-3.2-8s-4.8-3.2-8-3.2
			c-3.2,0-5.9,1.1-8,3.2s-3.2,4.8-3.2,8v50.7H132.3z"/>
		<path id="XMLID_511_" class="st1" d="M199.9,348v-84.5c0-6.2,1.2-12,3.5-17.5c2.3-5.4,5.6-10.2,9.7-14.4c4.1-4.1,8.9-7.4,14.4-9.7
			c5.4-2.3,11.3-3.5,17.5-3.5c6.2,0,12,1.2,17.5,3.5c5.4,2.3,10.2,5.6,14.4,9.7c4.1,4.1,7.4,8.9,9.7,14.4c2.3,5.4,3.5,11.3,3.5,17.5
			v95.7c0,6.2-1.2,12-3.5,17.5c-2.3,5.4-5.6,10.2-9.7,14.4c-4.1,4.1-8.9,7.4-14.4,9.7c-5.4,2.3-11.3,3.5-17.5,3.5h-33.8v-33.8h33.8
			c3.2,0,5.9-1.1,8-3.2c2.2-2.2,3.2-4.8,3.2-8V348H199.9z M256.2,314.2v-50.7c0-3.2-1.1-5.9-3.2-8s-4.8-3.2-8-3.2
			c-3.2,0-5.9,1.1-8,3.2s-3.2,4.8-3.2,8v50.7H256.2z"/>
		<path id="XMLID_514_" class="st1" d="M306.9,370.5h5.6c3.2,0,5.9-1.1,8-3.2c2.2-2.2,3.2-4.8,3.2-8V218.5h33.8v140.8
			c0,6.2-1.2,12-3.5,17.5c-2.3,5.4-5.6,10.2-9.7,14.4c-4.1,4.1-8.9,7.4-14.4,9.7c-5.4,2.3-11.3,3.5-17.5,3.5h-5.6V370.5z"/>
		<path id="XMLID_516_" class="st1" d="M391.3,314.2h59.1V145.3h33.8v168.9h16.9V348H391.3V314.2z M399.8,297.3V179.1h33.8v118.3
			H399.8z"/>
		<path id="XMLID_519_" class="st1" d="M518.1,302.9v-39.4c0-6.2,1.2-12,3.5-17.5c2.3-5.4,5.6-10.2,9.7-14.4
			c4.1-4.1,8.9-7.4,14.4-9.7c5.4-2.3,11.3-3.5,17.5-3.5c6.2,0,12,1.2,17.5,3.5c5.4,2.3,10.2,5.6,14.4,9.7s7.4,8.9,9.7,14.4
			c2.3,5.4,3.5,11.3,3.5,17.5V348h-107c-3.2,0-5.9-1.6-8-4.9s-3.2-7.3-3.2-12c0-4.7,1.1-8.7,3.2-12c2.2-3.3,4.8-4.9,8-4.9h73.2
			v-11.3H518.1z M553.1,183.1c2.7-2.7,6.1-4.1,10-4.1c3.9,0,7.3,1.4,10,4.1c2.7,2.7,4.1,6.1,4.1,10s-1.4,7.3-4.1,10
			c-2.7,2.7-6.1,4.1-10,4.1c-3.9,0-7.3-1.4-10-4.1c-2.7-2.7-4.1-6.1-4.1-10S550.4,185.9,553.1,183.1z M574.4,269.2v-5.6
			c0-3.2-1.1-5.9-3.2-8c-2.2-2.2-4.8-3.2-8-3.2c-3.2,0-5.9,1.1-8,3.2c-2.2,2.2-3.2,4.8-3.2,8v5.6H574.4z"/>
	</g>
	<g id="XMLID_491_" class="st0">
		<path id="XMLID_492_" class="st1" d="M59.1,370.5h5.6c3.2,0,5.9-1.1,8-3.2c2.2-2.2,3.2-4.8,3.2-8v-95.7c0-6.2,1.2-12,3.5-17.5
			c2.3-5.4,5.6-10.2,9.7-14.4c4.1-4.1,8.9-7.4,14.4-9.7c5.4-2.3,11.3-3.5,17.5-3.5c6.2,0,12,1.2,17.5,3.5c5.4,2.3,10.2,5.6,14.4,9.7
			c4.1,4.1,7.4,8.9,9.7,14.4c2.3,5.4,3.5,11.3,3.5,17.5V348h-56.3v11.3c0,6.2-1.2,12-3.5,17.5c-2.3,5.4-5.6,10.2-9.7,14.4
			c-4.1,4.1-8.9,7.4-14.4,9.7c-5.4,2.3-11.3,3.5-17.5,3.5h-5.6V370.5z M132.3,314.2v-50.7c0-3.2-1.1-5.9-3.2-8s-4.8-3.2-8-3.2
			c-3.2,0-5.9,1.1-8,3.2s-3.2,4.8-3.2,8v50.7H132.3z"/>
		<path id="XMLID_495_" class="st1" d="M199.9,348v-84.5c0-6.2,1.2-12,3.5-17.5c2.3-5.4,5.6-10.2,9.7-14.4c4.1-4.1,8.9-7.4,14.4-9.7
			c5.4-2.3,11.3-3.5,17.5-3.5c6.2,0,12,1.2,17.5,3.5c5.4,2.3,10.2,5.6,14.4,9.7c4.1,4.1,7.4,8.9,9.7,14.4c2.3,5.4,3.5,11.3,3.5,17.5
			v95.7c0,6.2-1.2,12-3.5,17.5c-2.3,5.4-5.6,10.2-9.7,14.4c-4.1,4.1-8.9,7.4-14.4,9.7c-5.4,2.3-11.3,3.5-17.5,3.5h-33.8v-33.8h33.8
			c3.2,0,5.9-1.1,8-3.2c2.2-2.2,3.2-4.8,3.2-8V348H199.9z M256.2,314.2v-50.7c0-3.2-1.1-5.9-3.2-8s-4.8-3.2-8-3.2
			c-3.2,0-5.9,1.1-8,3.2s-3.2,4.8-3.2,8v50.7H256.2z"/>
		<path id="XMLID_498_" class="st1" d="M306.9,370.5h5.6c3.2,0,5.9-1.1,8-3.2c2.2-2.2,3.2-4.8,3.2-8V218.5h33.8v140.8
			c0,6.2-1.2,12-3.5,17.5c-2.3,5.4-5.6,10.2-9.7,14.4c-4.1,4.1-8.9,7.4-14.4,9.7c-5.4,2.3-11.3,3.5-17.5,3.5h-5.6V370.5z"/>
		<path id="XMLID_500_" class="st1" d="M391.3,314.2h59.1V145.3h33.8v168.9h16.9V348H391.3V314.2z M399.8,297.3V179.1h33.8v118.3
			H399.8z"/>
		<path id="XMLID_503_" class="st1" d="M518.1,302.9v-39.4c0-6.2,1.2-12,3.5-17.5c2.3-5.4,5.6-10.2,9.7-14.4
			c4.1-4.1,8.9-7.4,14.4-9.7c5.4-2.3,11.3-3.5,17.5-3.5c6.2,0,12,1.2,17.5,3.5c5.4,2.3,10.2,5.6,14.4,9.7s7.4,8.9,9.7,14.4
			c2.3,5.4,3.5,11.3,3.5,17.5V348h-107c-3.2,0-5.9-1.6-8-4.9s-3.2-7.3-3.2-12c0-4.7,1.1-8.7,3.2-12c2.2-3.3,4.8-4.9,8-4.9h73.2
			v-11.3H518.1z M553.1,183.1c2.7-2.7,6.1-4.1,10-4.1c3.9,0,7.3,1.4,10,4.1c2.7,2.7,4.1,6.1,4.1,10s-1.4,7.3-4.1,10
			c-2.7,2.7-6.1,4.1-10,4.1c-3.9,0-7.3-1.4-10-4.1c-2.7-2.7-4.1-6.1-4.1-10S550.4,185.9,553.1,183.1z M574.4,269.2v-5.6
			c0-3.2-1.1-5.9-3.2-8c-2.2-2.2-4.8-3.2-8-3.2c-3.2,0-5.9,1.1-8,3.2c-2.2,2.2-3.2,4.8-3.2,8v5.6H574.4z"/>
	</g>
	<g id="XMLID_418_" class="st0">
		<path id="XMLID_456_" class="st1" d="M59.1,370.5h5.6c3.2,0,5.9-1.1,8-3.2c2.2-2.2,3.2-4.8,3.2-8v-95.7c0-6.2,1.2-12,3.5-17.5
			c2.3-5.4,5.6-10.2,9.7-14.4c4.1-4.1,8.9-7.4,14.4-9.7c5.4-2.3,11.3-3.5,17.5-3.5c6.2,0,12,1.2,17.5,3.5c5.4,2.3,10.2,5.6,14.4,9.7
			c4.1,4.1,7.4,8.9,9.7,14.4c2.3,5.4,3.5,11.3,3.5,17.5V348h-56.3v11.3c0,6.2-1.2,12-3.5,17.5c-2.3,5.4-5.6,10.2-9.7,14.4
			c-4.1,4.1-8.9,7.4-14.4,9.7c-5.4,2.3-11.3,3.5-17.5,3.5h-5.6V370.5z M132.3,314.2v-50.7c0-3.2-1.1-5.9-3.2-8s-4.8-3.2-8-3.2
			c-3.2,0-5.9,1.1-8,3.2s-3.2,4.8-3.2,8v50.7H132.3z"/>
		<path id="XMLID_468_" class="st1" d="M199.9,348v-84.5c0-6.2,1.2-12,3.5-17.5c2.3-5.4,5.6-10.2,9.7-14.4c4.1-4.1,8.9-7.4,14.4-9.7
			c5.4-2.3,11.3-3.5,17.5-3.5c6.2,0,12,1.2,17.5,3.5c5.4,2.3,10.2,5.6,14.4,9.7c4.1,4.1,7.4,8.9,9.7,14.4c2.3,5.4,3.5,11.3,3.5,17.5
			v95.7c0,6.2-1.2,12-3.5,17.5c-2.3,5.4-5.6,10.2-9.7,14.4c-4.1,4.1-8.9,7.4-14.4,9.7c-5.4,2.3-11.3,3.5-17.5,3.5h-33.8v-33.8h33.8
			c3.2,0,5.9-1.1,8-3.2c2.2-2.2,3.2-4.8,3.2-8V348H199.9z M256.2,314.2v-50.7c0-3.2-1.1-5.9-3.2-8s-4.8-3.2-8-3.2
			c-3.2,0-5.9,1.1-8,3.2s-3.2,4.8-3.2,8v50.7H256.2z"/>
		<path id="XMLID_471_" class="st1" d="M306.9,370.5h5.6c3.2,0,5.9-1.1,8-3.2c2.2-2.2,3.2-4.8,3.2-8V218.5h33.8v140.8
			c0,6.2-1.2,12-3.5,17.5c-2.3,5.4-5.6,10.2-9.7,14.4c-4.1,4.1-8.9,7.4-14.4,9.7c-5.4,2.3-11.3,3.5-17.5,3.5h-5.6V370.5z"/>
		<path id="XMLID_473_" class="st1" d="M391.3,314.2h59.1V145.3h33.8v168.9h16.9V348H391.3V314.2z M399.8,297.3V179.1h33.8v118.3
			H399.8z"/>
		<path id="XMLID_485_" class="st1" d="M518.1,302.9v-39.4c0-6.2,1.2-12,3.5-17.5c2.3-5.4,5.6-10.2,9.7-14.4
			c4.1-4.1,8.9-7.4,14.4-9.7c5.4-2.3,11.3-3.5,17.5-3.5c6.2,0,12,1.2,17.5,3.5c5.4,2.3,10.2,5.6,14.4,9.7s7.4,8.9,9.7,14.4
			c2.3,5.4,3.5,11.3,3.5,17.5V348h-107c-3.2,0-5.9-1.6-8-4.9s-3.2-7.3-3.2-12c0-4.7,1.1-8.7,3.2-12c2.2-3.3,4.8-4.9,8-4.9h73.2
			v-11.3H518.1z M553.1,183.1c2.7-2.7,6.1-4.1,10-4.1c3.9,0,7.3,1.4,10,4.1c2.7,2.7,4.1,6.1,4.1,10s-1.4,7.3-4.1,10
			c-2.7,2.7-6.1,4.1-10,4.1c-3.9,0-7.3-1.4-10-4.1c-2.7-2.7-4.1-6.1-4.1-10S550.4,185.9,553.1,183.1z M574.4,269.2v-5.6
			c0-3.2-1.1-5.9-3.2-8c-2.2-2.2-4.8-3.2-8-3.2c-3.2,0-5.9,1.1-8,3.2c-2.2,2.2-3.2,4.8-3.2,8v5.6H574.4z"/>
	</g>
	<g id="XMLID_419_">
		<linearGradient id="XMLID_523_" gradientUnits="userSpaceOnUse" x1="422.2035" y1="161.3927" x2="422.2035" y2="348">
			<stop  offset="0" style="stop-color:#E87631"/>
			<stop  offset="1" style="stop-color:#E5582B"/>
		</linearGradient>
		<path id="XMLID_420_" style="fill:url(#XMLID_523_);" d="M368.7,314.2h5.6c3.2,0,5.9-1.1,8-3.2c2.2-2.2,3.2-4.8,3.2-9.2v-96.5
			c0-5,1.2-10.8,3.5-16.3c2.3-5.4,5.6-10.2,9.7-14.4c4.1-4.1,8.9-7.4,14.4-9.7c5.4-2.3,11.3-3.5,17.5-3.5c6.2,0,12,1.2,17.5,3.5
			c5.4,2.3,10.2,5.6,14.4,9.7c4.1,4.1,7.4,8.9,9.7,14.4c2.3,5.4,3.5,11.3,3.5,17.5v83.3h-56.3v13.2c0,6.2-1.2,12-3.5,17.5
			c-2.3,5.4-5.6,10.2-9.7,14.4c-4.1,4.1-8.9,7.4-14.4,9.7c-5.4,2.3-11.3,3.5-17.5,3.5h-5.6V314.2z M441.9,257.1v-50.7
			c0-3.2-1.1-5.9-3.2-8s-4.8-3.2-8-3.2c-3.2,0-5.9,1.1-8,3.2s-3.2,4.8-3.2,8v50.7H441.9z"/>
		<linearGradient id="XMLID_524_" gradientUnits="userSpaceOnUse" x1="534.8285" y1="161.3927" x2="534.8285" y2="348">
			<stop  offset="0" style="stop-color:#E87631"/>
			<stop  offset="1" style="stop-color:#E5582B"/>
		</linearGradient>
		<path id="XMLID_423_" style="fill:url(#XMLID_524_);" d="M489.8,289.8v-83.3c0-6.2,1.2-12,3.5-17.5c2.3-5.4,5.6-10.2,9.7-14.4
			c4.1-4.1,8.9-7.4,14.4-9.7c5.4-2.3,11.3-3.5,17.5-3.5c6.2,0,12,1.2,17.5,3.5c5.4,2.3,10.2,5.6,14.4,9.7c4.1,4.1,7.4,8.9,9.7,14.4
			c2.3,5.4,3.5,11.3,3.5,16.3v96.5c0,7.4-1.2,13.2-3.5,18.6c-2.3,5.4-5.6,10.2-9.7,14.4c-4.1,4.1-8.9,7.4-14.4,9.7
			c-5.4,2.3-11.3,3.5-17.5,3.5H501v-33.8h33.8c3.2,0,5.9-1.1,8-3.2c2.2-2.2,3.2-4.8,3.2-8v-13.2H489.8z M546.1,257.1v-50.7
			c0-3.2-1.1-5.9-3.2-8s-4.8-3.2-8-3.2c-3.2,0-5.9,1.1-8,3.2s-3.2,4.8-3.2,8v50.7H546.1z"/>
		<linearGradient id="XMLID_525_" gradientUnits="userSpaceOnUse" x1="619.2992" y1="161.2" x2="619.2992" y2="348">
			<stop  offset="0" style="stop-color:#E87631"/>
			<stop  offset="1" style="stop-color:#E5582B"/>
		</linearGradient>
		<path id="XMLID_426_" style="fill:url(#XMLID_525_);" d="M594,314.2h5.6c3.2,0,5.9-1.1,8-3.2c2.2-2.2,3.2-4.8,3.2-8V161.2h33.8
			v141.7c0,6.2-1.2,12-3.5,17.5c-2.3,5.4-5.6,10.2-9.7,14.4c-4.1,4.1-8.9,7.4-14.4,9.7c-5.4,2.3-11.3,3.5-17.5,3.5H594V314.2z"/>
		<linearGradient id="XMLID_526_" gradientUnits="userSpaceOnUse" x1="712.3329" y1="161.2" x2="712.3329" y2="348">
			<stop  offset="0" style="stop-color:#E87631"/>
			<stop  offset="1" style="stop-color:#E5582B"/>
		</linearGradient>
		<path id="XMLID_428_" style="fill:url(#XMLID_526_);" d="M657.4,314.2h59.1v-153h33.8v153h16.9V348H657.4V314.2z M665.9,289.8
			V161.2h33.8v128.6H665.9z"/>
		<linearGradient id="XMLID_527_" gradientUnits="userSpaceOnUse" x1="815.1068" y1="161.0079" x2="815.1068" y2="348">
			<stop  offset="0" style="stop-color:#E87631"/>
			<stop  offset="1" style="stop-color:#E5582B"/>
		</linearGradient>
		<path id="XMLID_431_" style="fill:url(#XMLID_527_);" d="M784.1,289.8v-49.5c0-6.2,1.2-12,3.5-17.5c2.3-5.4,5.6-10.2,9.7-14.4
			c4.1-4.1,8.9-7.4,14.4-9.7c5.4-2.3,11.3-3.5,17.5-3.5c6.2,0,12,1.2,17.5,3.5c5.4,2.3,10.2,5.6,14.4,9.7s7.4,8.9,9.7,14.4
			c2.3,5.4,3.5,11.3,3.5,17.5V348h-107c-3.2,0-5.9-1.6-8-4.9s-3.2-7.3-3.2-12c0-4.7,1.1-8.7,3.2-12c2.2-3.3,4.8-4.9,8-4.9h73.2
			v-24.5H784.1z M819.2,165.1c2.7-2.7,6.1-4.1,10-4.1c3.9,0,7.3,1.4,10,4.1c2.7,2.7,4.1,6.1,4.1,10s-1.4,7.3-4.1,10
			c-2.7,2.7-6.1,4.1-10,4.1c-3.9,0-7.3-1.4-10-4.1c-2.7-2.7-4.1-6.1-4.1-10S816.5,167.8,819.2,165.1z M840.4,256v-15.7
			c0-3.2-1.1-5.9-3.2-8c-2.2-2.2-4.8-3.2-8-3.2c-3.2,0-5.9,1.1-8,3.2c-2.2,2.2-3.2,4.8-3.2,8V256H840.4z"/>
	</g>
</g>
<g id="Layer_2">
</g>
<g id="Layer_3">
</g>
</svg>
